<svg xmlns="http://www.w3.org/2000/svg" viewBox="0 0 1024 1024">
  <rect width="1024" height="1024" fill="#000"/>
  <g fill="#fff">
    <path d="M512 250C503 181 564 115 651 111C656 180 598 248 512 250Z"/>
    <path d="M505 303C463 303 425 277 373 277C270 277 192 364 192 488C192 630 267 801 346 858C403 899 441 844 505 844C569 844 603 895 655 867C716 834 767 745 795 662C738 641 704 597 704 541C704 483 739 439 789 415C752 325 697 277 634 277C580 277 547 303 505 303Z"/>
  </g>
  <g fill="#000" transform="translate(341 403) scale(0.44) translate(-242 -152)">
    <path fill-rule="evenodd" d="M242 152H782V512H602V692H422V872H242ZM422 332V512H602V332ZM602 692H782V872H602Z"/>
  </g>
</svg>
